<svg width="490" height="490" xmlns="http://www.w3.org/2000/svg" x="0px" y="0px" viewBox="0 0 490 490">
 <defs>
  <style type="text/css">@import url('https://fonts.googleapis.com/css2?family=Montserrat:wght@200');</style>
 </defs>
 <g>
  <title>Layer 1</title>
  <rect width="100%" height="100%" fill="white"/>
  <line transform="rotate(45 386.391 43.4251)" stroke-linecap="undefined" stroke-linejoin="undefined" id="svg_7" y2="46.17737" x2="3.36392" y1="40.67278" x1="0.00001" stroke="#000" fill="none"/>
  <line stroke="#000" stroke-linecap="undefined" stroke-linejoin="undefined" id="svg_22" y2="241.87596" x2="472.90377" y1="238.82102" x1="479.07008" fill="none"/>
  <line stroke="#000" stroke-linecap="undefined" stroke-linejoin="undefined" id="svg_23" y2="235.53261" x2="472.82003" y1="238.65997" x1="479.11043" fill="none"/>
  <path stroke="#CC7C65" id="svg_106" d="m79.58388,238.34223c0,-169.37261 164.91701,-169.60393 165.02198,-169.84521c-0.10497,0.24128 -0.12963,169.84521 -0.12963,169.84521" opacity="0.75" stroke-width="0" fill="#8f8fff"/>
  <path stroke="#CC7C65" id="svg_98" d="m244.83519,238.58357c0,0 82.624,0 82.39309,-0.23797c0.23091,0.23797 0.23091,-169.12879 0,-169.36675c0,0.2378 -82.39825,0.23797 -82.624,-0.47574" opacity="0.75" stroke-width="0" fill="#8f8fff"/>
  <path stroke="#CC7C65" id="svg_100" d="m244.72103,238.7533c0,0 82.78473,0 82.55337,-0.23669c0.23136,0.23669 -82.09089,169.63746 -82.32225,169.40077" opacity="0.75" stroke-width="0" fill="#8f8fff"/>
  <line stroke="#000" stroke-linecap="undefined" stroke-linejoin="undefined" id="svg_3" y2="17.11421" x2="247.51885" y1="10.77266" x1="244.54833" fill="none"/>
  <line stroke="#000" stroke-linecap="undefined" stroke-linejoin="undefined" id="svg_9" y2="17.23365" x2="241.31141" y1="10.76447" x1="244.35235" fill="none"/>
  <line stroke="#000000" stroke-width="0.5" stroke-linecap="undefined" stroke-linejoin="undefined" id="svg_28" y2="241.52815" x2="409.59816" y1="235.94822" x1="409.59816" fill="none"/>
  <line stroke="#000000" stroke-width="0.5" stroke-linecap="undefined" stroke-linejoin="undefined" id="svg_38" y2="153.67914" x2="241.56658" y1="153.67914" x1="246.99232" fill="none"/>
  <line stroke="#000000" stroke-width="0.5" stroke-linecap="undefined" stroke-linejoin="undefined" id="svg_39" y2="241.63219" x2="79.41682" y1="236.05226" x1="79.41682" fill="none"/>
  <line stroke="#000000" stroke-width="0.5" stroke-linecap="undefined" stroke-linejoin="undefined" id="svg_40" y2="241.63219" x2="161.75982" y1="236.05226" x1="161.75982" fill="none"/>
  <line stroke="#000000" stroke-width="0.5" stroke-linecap="undefined" stroke-linejoin="undefined" id="svg_41" y2="68.86537" x2="241.67316" y1="68.86537" x1="247.0989" fill="none"/>
  <text stroke="#CC7C65" transform="matrix(1.0215 0 0 1.05053 62.481 1.28479)" font-style="normal" font-weight="normal" xml:space="preserve" text-anchor="start" font-family="'Montserrat'" font-size="19" stroke-width="0" id="svg_52" y="246" x="73.37394" fill="#000000">-0.5R</text>
  <text stroke="#CC7C65" transform="matrix(1.0215 0 0 1.05053 62.481 1.28479)" font-style="normal" font-weight="normal" xml:space="preserve" text-anchor="start" font-family="'Montserrat'" font-size="19" stroke-width="0" id="svg_53" y="246" x="5.09282" fill="#000000">-R</text>
  <text stroke="#CC7C65" transform="matrix(1.0215 0 0 1.05053 62.481 1.28479)" font-style="normal" font-weight="normal" xml:space="preserve" text-anchor="start" font-family="'Montserrat'" font-size="19" stroke-width="0" id="svg_54" y="309.0894" x="180.94429" fill="#000000">-0.5R</text>
  <text stroke="#CC7C65" transform="matrix(1.0215 0 0 1.05053 62.481 1.28479)" font-style="normal" font-weight="normal" xml:space="preserve" text-anchor="start" font-family="'Montserrat'" font-size="19" stroke-width="0" id="svg_55" y="388.79215" x="183.54327" fill="#000000">-R</text>
  <text stroke="#CC7C65" transform="matrix(1.0215 0 0 1.05053 62.481 1.28479)" font-style="normal" font-weight="normal" xml:space="preserve" text-anchor="start" font-family="'Montserrat'" font-size="19" stroke-width="0" id="svg_57" y="246" x="335.50982" fill="#000000">R</text>
  <text stroke="#CC7C65" transform="matrix(1.0215 0 0 1.05053 62.481 1.28479)" font-style="normal" font-weight="normal" xml:space="preserve" text-anchor="start" font-family="'Montserrat'" font-size="19" stroke-width="0" id="svg_58" y="150" x="183.19499" fill="#000000">0.5R</text>
  <text stroke="#CC7C65" transform="matrix(1.0215 0 0 1.05053 62.481 1.28479)" font-style="normal" font-weight="normal" xml:space="preserve" text-anchor="start" font-family="'Montserrat'" font-size="19" stroke-width="0" id="svg_59" y="69" x="183" fill="#000000">R</text>
  <path stroke="#CC7C65" id="svg_94" d="m409.83552,238.38013" opacity="NaN" stroke-width="0" fill="#FFDFB8"/>
  <path stroke="#CC7C65" id="svg_97" d="m244.43233,238.00628c0,0 82.88336,0.74771 82.52064,0.56136" opacity="NaN" stroke-width="0" fill="#9A8AAB"/>
  <path stroke="#CC7C65" id="svg_99" d="m244.21781,237.92298" opacity="NaN" stroke-width="0" fill="#000000"/>
  <path stroke="#CC7C65" id="svg_103" d="m244.60581,238.27583" opacity="NaN" stroke-width="0" fill="#9A8AAB"/>
  <text stroke="#CC7C65" transform="matrix(1.0215 0 0 1.05053 62.481 1.28479)" font-style="normal" font-weight="normal" xml:space="preserve" text-anchor="start" font-family="'Montserrat'" font-size="19" stroke-width="0" id="svg_56" y="245.70369" x="242.45131" fill="#000000">0.5R</text>
  <line stroke="#000" stroke-linecap="undefined" stroke-linejoin="undefined" id="svg_21" y2="238.76751" x2="10.88106" y1="238.76751" x1="479.20981" fill="none"/>
  <line stroke="#000" stroke-linecap="undefined" stroke-linejoin="undefined" id="svg_1" y2="479.43553" x2="244.37937" y1="10.63622" x1="244.37937" fill="none"/>
  <line stroke="#000000" stroke-width="0.5" stroke-linecap="undefined" stroke-linejoin="undefined" id="svg_27" y2="241.62263" x2="327.17858" y1="236.04268" x1="327.17858" fill="none"/>
  <line stroke="#000000" stroke-width="0.5" stroke-linecap="undefined" stroke-linejoin="undefined" id="svg_5" y2="407.58895" x2="241.6593" y1="407.58895" x1="247.08504" fill="none"/>
  <line stroke="#000000" stroke-width="0.5" stroke-linecap="undefined" stroke-linejoin="undefined" id="svg_6" y2="323.65165" x2="241.66699" y1="323.65165" x1="247.09273" fill="none"/>
 </g>

</svg>