<svg width="490" height="245" xmlns="http://www.w3.org/2000/svg" x="0px" y="0px" viewBox="0 0 490 245">
 <defs>
  <style type="text/css">@import url('https://fonts.googleapis.com/css2?family=Montserrat:wght@200');</style>
 </defs>
 <g>
  <title>Layer 1</title>
  <rect width="200%" height="100%" fill="white"/>
  <line transform="rotate(45 386.391 43.4251)" stroke-linecap="undefined" stroke-linejoin="undefined" id="svg_7" y2="46.17737" x2="3.36392" y1="40.67278" x1="0.00001" stroke="#000" fill="none"/>
  <g stroke="null" id="svg_2">
   <line stroke="#000" stroke-linecap="undefined" stroke-linejoin="undefined" id="svg_22" y2="120.97139" x2="361.40365" y1="119.47659" x1="364.50661" fill="none"/>
   <line stroke="#000" stroke-linecap="undefined" stroke-linejoin="undefined" id="svg_23" y2="117.86754" x2="361.31093" y1="119.39779" x1="364.47634" fill="none"/>
   <path stroke="#CC7C65" id="svg_106" d="m161.76046,119.24231c0,-82.87519 82.98838,-82.98838 83.04121,-83.10644c-0.05282,0.11806 -0.06523,83.10644 -0.06523,83.10644" opacity="0.75" stroke-width="0" fill="#8f8fff"/>
   <path stroke="#CC7C65" id="svg_98" d="m244.91706,119.3604c0,0 41.57747,0 41.46127,-0.11644c0.1162,0.11644 0.1162,-82.75589 0,-82.87233c0,0.11636 -41.46387,0.11644 -41.57747,-0.23279" opacity="0.75" stroke-width="0" fill="#8f8fff"/>
   <path stroke="#CC7C65" id="svg_100" d="m244.85961,119.44345c0,0 41.65835,0 41.54193,-0.11581c0.11642,0.11581 -41.3092,83.00479 -41.42563,82.88897" opacity="0.75" stroke-width="0" fill="#8f8fff"/>
   <line stroke="#000" stroke-linecap="undefined" stroke-linejoin="undefined" id="svg_3" y2="6.16544" x2="246.26752" y1="3.06248" x1="244.77271" fill="none"/>
   <line stroke="#000" stroke-linecap="undefined" stroke-linejoin="undefined" id="svg_9" y2="6.21826" x2="243.14385" y1="3.05285" x1="244.67409" fill="none"/>
   <line stroke="#000000" stroke-width="0.5" stroke-linecap="undefined" stroke-linejoin="undefined" id="svg_28" y2="120.80121" x2="327.82793" y1="118.07091" x1="327.82793" fill="none"/>
   <line stroke="#000000" stroke-width="0.5" stroke-linecap="undefined" stroke-linejoin="undefined" id="svg_38" y2="77.81607" x2="243.27226" y1="77.81607" x1="246.00256" fill="none"/>
   <line stroke="#000000" stroke-width="0.5" stroke-linecap="undefined" stroke-linejoin="undefined" id="svg_39" y2="120.85211" x2="161.67639" y1="118.12181" x1="161.67639" fill="none"/>
   <line stroke="#000000" stroke-width="0.5" stroke-linecap="undefined" stroke-linejoin="undefined" id="svg_40" y2="120.85211" x2="203.11246" y1="118.12181" x1="203.11246" fill="none"/>
   <line stroke="#000000" stroke-width="0.5" stroke-linecap="undefined" stroke-linejoin="undefined" id="svg_41" y2="36.31611" x2="243.32589" y1="36.31611" x1="246.05619" fill="none"/>
   <text transform="matrix(0.514034 0 0 0.514034 125.124 2.41703)" stroke="#CC7C65" font-style="normal" font-weight="normal" xml:space="preserve" text-anchor="start" font-family="'Montserrat'" font-size="14" stroke-width="0" id="svg_52" y="242.73672" x="134.83498" fill="#000000">-0.5R</text>
   <text transform="matrix(0.514034 0 0 0.514034 125.124 2.41703)" stroke="#CC7C65" font-style="normal" font-weight="normal" xml:space="preserve" text-anchor="start" font-family="'Montserrat'" font-size="14" stroke-width="0" id="svg_53" y="243.50596" x="63.08855" fill="#000000">-R</text>
   <text transform="matrix(0.514034 0 0 0.514034 125.124 2.41703)" stroke="#CC7C65" font-style="normal" font-weight="normal" xml:space="preserve" text-anchor="start" font-family="'Montserrat'" font-size="14" stroke-width="0" id="svg_54" y="312.39164" x="237.20737" fill="#000000">-0.5R</text>
   <text transform="matrix(0.514034 0 0 0.514034 125.124 2.41703)" stroke="#CC7C65" font-style="normal" font-weight="normal" xml:space="preserve" text-anchor="start" font-family="'Montserrat'" font-size="14" stroke-width="0" id="svg_55" y="392.09439" x="237.20737" fill="#000000">-R</text>
   <text transform="matrix(0.514034 0 0 0.514034 125.124 2.41703)" stroke="#CC7C65" font-style="normal" font-weight="normal" xml:space="preserve" text-anchor="start" font-family="'Montserrat'" font-size="14" stroke-width="0" id="svg_57" y="243.10923" x="390.04025" fill="#000000">R</text>
   <text transform="matrix(0.514034 0 0 0.514034 125.124 2.41703)" stroke="#CC7C65" font-style="normal" font-weight="normal" xml:space="preserve" text-anchor="start" font-family="'Montserrat'" font-size="14" stroke-width="0" id="svg_58" y="151.6657" x="236.85909" fill="#000000">0.5R</text>
   <text transform="matrix(0.514034 0 0 0.514034 125.124 2.41703)" stroke="#CC7C65" font-style="normal" font-weight="normal" xml:space="preserve" text-anchor="start" font-family="'Montserrat'" font-size="14" stroke-width="0" id="svg_59" y="71.00299" x="239.20737" fill="#000000">R</text>
   <path stroke="#CC7C65" id="svg_94" d="m327.94737,119.26086" opacity="NaN" stroke-width="0" fill="#FFDFB8"/>
   <path stroke="#CC7C65" id="svg_97" d="m244.71434,119.07793c0,0 41.70798,0.36586 41.52546,0.27468" opacity="NaN" stroke-width="0" fill="#9A8AAB"/>
   <path stroke="#CC7C65" id="svg_99" d="m244.60639,119.03717" opacity="NaN" stroke-width="0" fill="#000000"/>
   <path stroke="#CC7C65" id="svg_103" d="m244.80164,119.20982" opacity="NaN" stroke-width="0" fill="#9A8AAB"/>
   <text transform="matrix(0.514034 0 0 0.514034 125.124 2.41703)" stroke="#CC7C65" font-style="normal" font-weight="normal" xml:space="preserve" text-anchor="start" font-family="'Montserrat'" font-size="14" stroke-width="0" id="svg_56" y="243.10923" x="301.31337" fill="#000000">0.5R</text>
   <line stroke="#000" stroke-linecap="undefined" stroke-linejoin="undefined" id="svg_21" y2="119.45041" x2="125.47366" y1="119.45041" x1="364.52634" fill="none"/>
   <line stroke="#000" stroke-linecap="undefined" stroke-linejoin="undefined" id="svg_1" y2="242.02635" x2="244.68769" y1="2.97366" x1="244.68769" fill="none"/>
   <line stroke="#000000" stroke-width="0.5" stroke-linecap="undefined" stroke-linejoin="undefined" id="svg_27" y2="120.84743" x2="286.35333" y1="118.11713" x1="286.35333" fill="none"/>
   <line stroke="#000000" stroke-width="0.5" stroke-linecap="undefined" stroke-linejoin="undefined" id="svg_5" y2="202.05591" x2="243.31891" y1="202.05591" x1="246.04922" fill="none"/>
   <line stroke="#000000" stroke-width="0.5" stroke-linecap="undefined" stroke-linejoin="undefined" id="svg_6" y2="160.9848" x2="243.32278" y1="160.9848" x1="246.05309" fill="none"/>
  </g>
 </g>

</svg>